<svg xmlns="http://www.w3.org/2000/svg" viewBox="0 0 244.97 230.73"><g id="레이어_2" data-name="레이어 2"><g id="레이어_1-2" data-name="레이어 1"><path d="M184,210.5s-.89-61.58-53.27-121.81C106.29,60.62,62.31,61.36,38.55,90A227,227,0,0,0,5.07,144.47c-16.23,37.35,8.24,79.65,48.67,84.5,34.31,4.11,79.57,2.23,130.23-18.47Z"/><path d="M128.46,49.26s65.18,22.15,92.4,174.56L245,217.44S227.71,67.89,136.44,28Z"/><path d="M229.71,22.81c19.24,25.37,2,109.76-11.09,80.76C179.43,17,123.59,31,149,11.72A57.64,57.64,0,0,1,229.71,22.81Z"/></g></g></svg>